<?xml version="1.0" encoding="utf-8"?>
<!-- Generator: Adobe Illustrator 19.1.0, SVG Export Plug-In . SVG Version: 6.00 Build 0)  -->
<svg version="1.1" id="Layer_1" xmlns="http://www.w3.org/2000/svg" xmlns:xlink="http://www.w3.org/1999/xlink" x="0px" y="0px"
	 viewBox="0 0 30 39.9" style="enable-background:new 0 0 30 39.9;" xml:space="preserve">
<style type="text/css">
	.st0{fill:#FFFFFF;}
</style>
<g>
	<path class="st0" d="M5.4,15.8c-2.1,0.8-4.4-0.3-5.1-2.4c-0.8-2.1,0.3-4.4,2.4-5.1l22-8.1c2.1-0.8,4.4,0.3,5.1,2.4
		c0.8,2.1-0.3,4.4-2.4,5.1L5.4,15.8z"/>
	<path class="st0" d="M5.4,27.7c-2.1,0.8-4.4-0.3-5.1-2.4c-0.8-2.1,0.3-4.4,2.4-5.1l22-8.1c2.1-0.8,4.4,0.3,5.1,2.4
		c0.8,2.1-0.3,4.4-2.4,5.1L5.4,27.7z"/>
	<path class="st0" d="M5.4,39.7c-2.1,0.8-4.4-0.3-5.1-2.4c-0.8-2.1,0.3-4.4,2.4-5.1l22-8.1c2.1-0.8,4.4,0.3,5.1,2.4
		c0.8,2.1-0.3,4.4-2.4,5.1L5.4,39.7z"/>
</g>
</svg>
