<?xml version="1.0" encoding="utf-8"?>
<!-- Generator: Adobe Illustrator 20.0.0, SVG Export Plug-In . SVG Version: 6.00 Build 0)  -->
<svg version="1.1" id="Layer_1" xmlns="http://www.w3.org/2000/svg" xmlns:xlink="http://www.w3.org/1999/xlink" x="0px" y="0px"
  viewBox="0 0 597.72 213.28" style="enable-background:new 0 0 597.72 213.28;" xml:space="preserve">
<style type="text/css">
  .st0{fill:url(#SVGID_1_);stroke:none;}
</style>
<g>
  <linearGradient id="SVGID_1_" x1="1351.73" y1="988.61" x2="1351.73" y2="829.57" gradientUnits="userSpaceOnUse">
		<stop offset="0" style="stop-color:#00A9D4;stop-opacity:0.3"/>
		<stop offset="1" style="stop-color:#00A9D4;stop-opacity:0.8"/>
  </linearGradient>
  <path class="st0"
    d="M1164.2,950.42h36.91v7.91H1164.2v58.15h-7.91V958.33H1052.87v-4.39L1154.68,803.2h9.52V950.42Zm-99,0h91.11V814.33l-0.88-.29L1144,832.94Zm548.5,0h36.91v7.91h-36.91v58.15h-7.91V958.33H1502.35v-4.39L1604.16,803.2h9.52V950.42Zm-99,0h91.11V814.33l-0.88-.29-11.43,18.9Zm-102.72-87.8-32.3,19.9-32.3,19.9v0l-26.87,26.76L1293.59,956l32.3-19.9,32.31-19.9v0l26.86-26.75Zm-78,41.55a19.39,19.39,0,0,1,27.81-11.22l1.9-1.17a21.32,21.32,0,0,0-4.87-2.22l-0.49-.14-3.05-15.25-3.08-15.36-3,15.38-3,15.33a21.51,21.51,0,0,0-6.74,3.45l-6.37-4.25L1326,884l4.78,7.07,4.32,6.39a21.27,21.27,0,0,0-3.07,6.13c-0.05.16-.09,0.33-0.14,0.49l-15.25,3-15.36,3.08,15.39,3,15.33,3c0.06,0.22.14,0.43,0.21,0.65l1.57-1.57A19.25,19.25,0,0,1,1333.94,904.16Zm69.26,5.45-15.38-3-15-2.89c-0.12-.39-0.25-0.76-0.38-1.14l-1.55,1.55a19.36,19.36,0,0,1-28.53,22.31l-1.86,1.15a21.14,21.14,0,0,0,5.57,2.67l0.15,0,3.07,15.36,3.08,15.36,3-15.39,2.94-15.23a21.81,21.81,0,0,0,7.52-3.89l6.79,4.52,7.1,4.73-4.78-7.07-4.73-7a21.11,21.11,0,0,0,2.61-5.46c0.06-.21.12-0.41,0.17-0.62l14.87-3Zm-51-105.95a106.26,106.26,0,1,0,106.26,106.26A106.39,106.39,0,0,0,1352.17,803.66ZM1447,936.82a98,98,0,0,1-8.8,21.15l-4.9-2.83-1.42,2.47,4.9,2.83a99.23,99.23,0,0,1-14,18.16l-4-4-2,2,4,4a99.22,99.22,0,0,1-18.16,14l-2.83-4.9-2.46,1.42,2.83,4.9a98,98,0,0,1-21.15,8.8l-1.47-5.5-2.75.74,1.47,5.5a98.15,98.15,0,0,1-18.06,2.8l-6.68-12.42-6.21,12.38a98.11,98.11,0,0,1-17.33-2.76l1.47-5.5-2.75-.74-1.47,5.5a98,98,0,0,1-21.15-8.8l2.83-4.9-2.47-1.42-2.83,4.9a99.22,99.22,0,0,1-18.16-14l4-4-2-2-4,4a99.22,99.22,0,0,1-14-18.16l4.9-2.83-1.42-2.47-4.9,2.83a98,98,0,0,1-8.8-21.15l5.5-1.47-0.74-2.75-5.5,1.47a98.09,98.09,0,0,1-2.73-16.89l13.17-7.09-13.22-6.64a98.13,98.13,0,0,1,2.78-17.67l5.5,1.47,0.74-2.75-5.5-1.47a98,98,0,0,1,8.8-21.15l4.9,2.83,1.42-2.47-4.9-2.83a99.22,99.22,0,0,1,14-18.15l4,4,2-2-4-4a99.22,99.22,0,0,1,18.16-14l2.83,4.9,2.47-1.42-2.83-4.9a98,98,0,0,1,21.15-8.8l1.47,5.5,2.75-.74-1.47-5.5a98.13,98.13,0,0,1,17.58-2.77l6.56,12.19,6.13-12.22a98.15,98.15,0,0,1,18,2.8l-1.47,5.5,2.75,0.74,1.47-5.5a98,98,0,0,1,21.15,8.8l-2.83,4.9,2.46,1.42,2.83-4.9a99.22,99.22,0,0,1,18.16,14l-4,4,2,2,4-4a99.22,99.22,0,0,1,14,18.16l-4.9,2.83,1.42,2.47,4.9-2.83A98,98,0,0,1,1447,883l-5.5,1.47,0.74,2.75,5.5-1.47a98.1,98.1,0,0,1,2.72,16.83l-13,7,13.11,6.58a98.15,98.15,0,0,1-2.79,17.86l-5.5-1.47-0.74,2.75Z" transform="translate(-1052.87 -803.2)"/>
</g>
</svg>
