<?xml version="1.0" encoding="utf-8"?>
<!-- Generator: Adobe Illustrator 19.2.1, SVG Export Plug-In . SVG Version: 6.00 Build 0)  -->
<svg version="1.1" id="Layer_1" xmlns="http://www.w3.org/2000/svg" xmlns:xlink="http://www.w3.org/1999/xlink" x="0px" y="0px"
	 viewBox="0 0 22 20" style="enable-background:new 0 0 22 20;" xml:space="preserve">
<style type="text/css">
	.st0{fill:#D2D2D2;}
</style>
<g>
	<path class="st0" d="M3.9,10C4,10,4,10,3.9,10L4,20c0,0,0,0-0.1,0H0.1C0,20,0,20,0,20l0-10c0,0,0,0,0.1,0H3.9z"/>
	<path class="st0" d="M12.9,0C13,0,13,0,13,0V20c0,0,0,0-0.1,0H9.1C9,20,9,20,9,20V0c0,0,0,0,0.1,0L12.9,0z"/>
	<path class="st0" d="M21.9,5C22,5,22,5,22,5V20c0,0,0,0-0.1,0h-3.8C18,20,18,20,18,20V5c0,0,0,0,0.1,0H21.9z"/>
</g>
</svg>
