<?xml version="1.0" encoding="utf-8"?>
<!-- Generator: Adobe Illustrator 19.2.1, SVG Export Plug-In . SVG Version: 6.00 Build 0)  -->
<svg version="1.1" id="Layer_1" xmlns="http://www.w3.org/2000/svg" xmlns:xlink="http://www.w3.org/1999/xlink" x="0px" y="0px"
	 viewBox="0 0 15 15" style="enable-background:new 0 0 15 15;" xml:space="preserve">
<style type="text/css">
	.st0{fill:#FFFFFF;}
</style>
<path class="st0" d="M1.2,12.8l1.1,1.1l-1.4,0.4L1.2,12.8z M14.1,0.9c0.4,0.4,0.4,1,0,1.3c-0.1,0.1-0.2,0.2-0.3,0.3l-1.3-1.3
	c0.2-0.2,0.3-0.3,0.3-0.3c0.2-0.2,0.4-0.3,0.7-0.3C13.7,0.7,13.9,0.7,14.1,0.9z M14.5,0.5C14.2,0.2,13.8,0,13.4,0
	c-0.4,0-0.8,0.2-1.1,0.5c0,0,0,0-0.1,0.1c0,0,0,0,0,0L0.8,12c0,0-0.1,0.1-0.1,0.1L0,14.6c0,0.1,0,0.2,0.1,0.3C0.2,15,0.2,15,0.3,15
	c0,0,0.1,0,0.1,0l2.4-0.7c0.1,0,0.1,0,0.1-0.1L14.5,2.8c0,0,0,0,0,0c0,0,0-0.1,0-0.1C15.2,2.1,15.2,1.1,14.5,0.5z"/>
</svg>
