<?xml version="1.0" encoding="utf-8"?>
<!-- Generator: Adobe Illustrator 19.2.1, SVG Export Plug-In . SVG Version: 6.00 Build 0)  -->
<svg version="1.1" id="Layer_1" xmlns="http://www.w3.org/2000/svg" xmlns:xlink="http://www.w3.org/1999/xlink" x="0px" y="0px"
	 viewBox="0 0 60 60" style="enable-background:new 0 0 60 60;" xml:space="preserve">
<style type="text/css">
	.st0{fill:#D2D2D2;}
</style>
<g>
	<rect x="22" y="14.5" class="st0" width="2" height="4"/>
	<polygon class="st0" points="40,16.5 40,18.5 40,20.5 38,20.5 36,20.5 34,20.5 34,18.5 34,16.5 26,16.5 26,18.5 26,20.5 24,20.5 
		22,20.5 20,20.5 20,18.5 20,16.5 15,16.5 15,22.5 45,22.5 45,16.5 	"/>
	<polygon class="st0" points="36,14.5 36,16.5 36,18.5 38,18.5 38,16.5 38,14.5 	"/>
	<path class="st0" d="M15,24.5v21h30v-21H15z M23,41.5h-4v-3h4V41.5z M23,36.5h-4v-3h4V36.5z M23,31.5h-4v-3h4V31.5z M29,41.5h-4v-3
		h4V41.5z M29,36.5h-4v-3h4V36.5z M29,31.5h-4v-3h4V31.5z M35,41.5h-4v-3h4V41.5z M35,36.5h-4v-3h4V36.5z M35,31.5h-4v-3h4V31.5z
		 M41,41.5h-4v-3h4V41.5z M41,36.5h-4v-3h4V36.5z M41,31.5h-4v-3h4V31.5z"/>
</g>
</svg>
